<?xml version="1.0" standalone="no"?>
<!DOCTYPE svg PUBLIC "-//W3C//DTD SVG 20010904//EN"
 "http://www.w3.org/TR/2001/REC-SVG-20010904/DTD/svg10.dtd">
<svg version="1.0" xmlns="http://www.w3.org/2000/svg"
 width="512.000000pt" height="512.000000pt" viewBox="0 0 512.000000 512.000000"
 preserveAspectRatio="xMidYMid meet">
<metadata>
Created by potrace 1.11, written by Peter Selinger 2001-2013
</metadata>
<g transform="translate(0.000000,512.000000) scale(0.100000,-0.100000)"
fill="#000000" stroke="none">
<path d="M2455 4985 c-194 -59 -319 -227 -317 -425 1 -154 93 -302 232 -374
l55 -29 -1 -91 c-2 -131 -3 -136 -17 -136 -7 0 -27 -15 -43 -32 -58 -62 -39
-161 35 -190 14 -5 71 -11 127 -13 55 -2 129 -11 165 -20 140 -36 280 -132
365 -251 43 -59 100 -174 88 -174 -4 0 -1 -7 7 -16 29 -36 41 -263 18 -349 -6
-22 -12 -44 -14 -50 -10 -44 -77 -176 -92 -182 -7 -3 -13 -11 -13 -18 0 -7 -6
-18 -14 -24 -12 -10 -13 -6 -5 28 5 23 7 96 5 163 -4 108 -8 136 -39 228 -43
127 -85 207 -147 280 -25 30 -57 68 -71 83 -70 83 -245 191 -369 229 -100 30
-244 48 -340 41 -204 -13 -441 -111 -549 -227 -14 -14 -28 -26 -31 -26 -4 0
-21 14 -38 30 -18 17 -34 30 -37 30 -3 0 -18 11 -33 25 -16 14 -36 31 -45 38
-14 10 -15 19 -4 67 36 162 -26 323 -168 438 -9 8 -46 28 -83 45 -60 27 -77
30 -167 31 -132 1 -196 -23 -300 -112 -128 -110 -175 -325 -104 -479 10 -24
19 -46 19 -49 0 -9 62 -86 90 -112 116 -105 299 -137 449 -77 77 30 72 29 97
7 10 -9 44 -37 74 -60 65 -52 74 -65 60 -91 -16 -31 -12 -83 10 -118 27 -45
56 -58 127 -54 22 1 104 66 101 79 -4 16 45 92 95 148 62 67 169 143 237 166
25 9 65 24 90 34 61 25 237 25 335 0 168 -44 310 -147 394 -287 24 -40 44 -79
45 -86 1 -7 5 -16 9 -19 18 -19 4 -25 -15 -7 -32 28 -139 90 -184 107 -22 8
-64 24 -94 36 -113 42 -243 54 -400 34 -138 -16 -151 -20 -248 -65 -208 -96
-393 -279 -463 -460 -11 -30 -25 -62 -30 -71 -5 -10 -9 -24 -9 -32 0 -8 -5
-27 -12 -43 -19 -48 -20 -55 -24 -195 -3 -92 1 -159 10 -203 l14 -66 -42 -21
c-22 -11 -68 -35 -102 -53 l-61 -33 -44 30 c-40 27 -98 57 -124 64 -48 13 -68
16 -125 18 -36 2 -82 -3 -102 -10 -21 -7 -38 -11 -38 -7 0 3 -11 -2 -25 -11
-14 -9 -25 -14 -25 -11 0 10 -94 -58 -125 -90 -51 -54 -72 -88 -97 -160 -28
-78 -34 -157 -18 -231 11 -54 68 -174 81 -174 5 0 9 -4 9 -10 0 -28 159 -136
219 -147 62 -12 152 -17 186 -9 212 46 350 205 360 411 2 39 4 73 4 76 1 4 22
16 49 28 26 12 67 33 92 46 l44 23 38 -34 c31 -27 46 -34 81 -34 50 0 104 30
117 66 19 49 11 85 -39 173 -68 120 -94 212 -93 328 1 104 29 228 69 307 62
122 178 237 290 287 37 17 82 37 98 44 42 20 137 35 216 35 109 0 111 -8 15
-54 -223 -108 -418 -351 -471 -586 -1 -3 -7 -32 -15 -65 -7 -33 -13 -109 -13
-170 1 -242 93 -468 254 -626 98 -95 245 -193 307 -205 7 -1 32 -11 55 -22 23
-11 56 -22 72 -26 l30 -6 0 -118 0 -117 -50 -27 c-146 -78 -238 -224 -236
-380 0 -35 2 -70 4 -78 2 -8 7 -31 12 -50 26 -115 142 -237 270 -285 61 -24
171 -30 236 -15 173 41 318 193 335 351 10 102 10 114 -4 168 -30 121 -100
213 -212 279 l-64 39 1 99 c1 54 2 105 2 111 1 7 14 19 31 28 55 29 74 97 44
160 -23 49 -65 65 -171 65 -86 0 -113 4 -223 37 -104 30 -211 104 -292 200
-46 55 -116 173 -102 173 3 0 1 6 -5 14 -48 58 -61 293 -22 423 20 67 71 170
109 221 16 21 17 18 14 -80 -4 -127 10 -237 43 -331 14 -39 27 -80 30 -90 5
-24 36 -74 101 -167 109 -157 302 -285 519 -346 28 -8 104 -17 170 -20 166 -9
270 9 403 68 26 12 50 21 54 20 3 -1 12 5 18 13 7 8 18 15 25 15 7 0 24 9 38
20 15 12 28 20 30 18 3 -2 33 23 67 55 l63 58 46 -32 c25 -18 48 -35 51 -39 3
-3 22 -17 42 -33 34 -25 36 -29 27 -59 -5 -18 -9 -58 -9 -88 1 -128 45 -229
139 -318 32 -30 115 -85 134 -88 4 -1 8 -2 10 -4 1 -1 9 -3 17 -6 169 -45 318
-7 435 110 66 67 98 122 119 207 54 218 -82 452 -298 514 -107 30 -208 21
-316 -29 l-51 -24 -84 62 -83 61 1 62 c2 58 0 65 -30 94 -24 25 -42 33 -80 36
-42 5 -53 1 -80 -21 -18 -15 -45 -52 -60 -83 -34 -68 -211 -253 -242 -253 -5
0 -31 -11 -58 -24 -26 -13 -65 -29 -85 -35 -21 -6 -54 -16 -74 -22 -45 -14
-205 -14 -259 0 -160 40 -270 106 -370 224 -48 56 -121 185 -110 195 2 2 28
-15 57 -37 70 -52 181 -103 288 -132 69 -19 112 -23 225 -23 77 -1 152 2 166
6 234 58 353 122 485 259 104 109 183 233 211 334 38 133 44 170 49 295 5 116
3 145 -14 204 -17 58 -18 71 -7 83 8 7 20 13 28 13 9 0 17 3 19 8 2 4 35 23
75 43 l72 36 54 -37 c280 -189 659 0 673 337 8 209 -115 379 -316 437 -205 58
-423 -45 -510 -241 -24 -54 -33 -102 -34 -175 l0 -58 -81 -42 c-114 -61 -115
-61 -165 -39 -68 30 -133 11 -163 -48 -20 -41 -15 -101 11 -139 38 -52 90
-177 102 -240 53 -296 -91 -592 -351 -719 -83 -40 -105 -49 -151 -59 -70 -15
-121 -19 -188 -14 l-74 5 84 44 c47 24 108 61 135 81 84 62 197 189 243 272
36 66 81 169 88 203 1 6 9 39 18 75 10 39 16 108 15 175 0 96 -6 151 -33 280
-9 42 -82 190 -127 255 -45 65 -143 163 -216 213 -72 51 -207 116 -272 133
-30 8 -58 19 -61 23 -3 5 -5 58 -5 117 l1 107 64 39 c338 201 280 680 -96 793
-54 16 -176 16 -229 0z m199 -2278 c58 -32 89 -95 84 -170 -6 -87 -55 -142
-143 -158 -113 -21 -207 56 -208 170 -1 138 148 226 267 158z"/>
</g>
</svg>
