<?xml version="1.0" standalone="no"?>
<!DOCTYPE svg PUBLIC "-//W3C//DTD SVG 20010904//EN"
 "http://www.w3.org/TR/2001/REC-SVG-20010904/DTD/svg10.dtd">
<svg version="1.0" xmlns="http://www.w3.org/2000/svg"
 width="160.000000pt" height="160.000000pt" viewBox="0 0 160.000000 160.000000"
 preserveAspectRatio="xMidYMid meet">
<metadata>
Created by potrace 1.11, written by Peter Selinger 2001-2013
</metadata>
<g transform="translate(0.000000,160.000000) scale(0.100000,-0.100000)"
fill="#000000" stroke="none">
<path d="M192 1378 c-19 -19 6 -38 52 -38 48 0 72 16 55 37 -14 16 -91 17
-107 1z"/>
<path d="M381 1377 c-22 -28 12 -38 121 -37 175 3 170 4 112 -25 -69 -34 -164
-123 -213 -198 -23 -34 -42 -66 -44 -72 -2 -6 -48 -11 -111 -11 -113 -2 -147
-13 -114 -38 11 -8 48 -12 108 -11 97 2 96 2 80 -55 -5 -20 -12 -58 -14 -85
-3 -28 -5 -53 -5 -56 -1 -3 -35 -5 -76 -4 -53 1 -79 -2 -87 -12 -21 -26 8 -37
92 -37 78 0 80 -1 80 -24 0 -13 11 -57 25 -99 52 -153 156 -275 294 -344 35
-18 29 -18 -296 -19 l-333 0 0 -26 0 -25 508 3 c490 4 509 4 572 26 115 38
233 122 304 214 138 182 152 459 31 658 -82 134 -208 229 -358 269 -63 17
-111 19 -368 20 -242 1 -298 -1 -308 -12z m687 -61 c110 -40 168 -78 244 -160
93 -100 137 -222 136 -370 -3 -290 -232 -524 -525 -535 -355 -14 -635 320
-556 663 24 103 68 182 148 262 76 77 157 124 260 151 64 16 235 10 293 -11z"/>
<path d="M707 972 c-108 -108 -197 -203 -197 -209 0 -12 332 -345 351 -352 15
-5 309 290 316 318 5 21 7 114 4 179 -1 30 -230 262 -257 262 -11 0 -100 -81
-217 -198z m307 62 c47 -47 86 -89 86 -92 0 -4 -22 -29 -50 -55 -27 -26 -50
-56 -50 -66 0 -11 15 -32 33 -48 17 -16 41 -39 52 -52 l19 -22 -119 -119 -120
-119 -153 152 -152 152 177 177 c98 97 181 177 185 177 4 1 45 -38 92 -85z
m122 -291 c-3 -3 -24 14 -46 37 l-41 43 43 44 43 44 3 -82 c2 -45 1 -84 -2
-86z"/>
<path d="M813 894 c-4 -11 20 -42 78 -100 77 -77 114 -99 114 -67 0 15 -163
183 -176 183 -5 0 -12 -7 -16 -16z"/>
<path d="M753 834 c-4 -11 20 -42 78 -100 82 -83 101 -95 115 -73 6 11 -162
189 -179 189 -4 0 -10 -7 -14 -16z"/>
<path d="M693 774 c-4 -11 20 -42 78 -100 82 -83 101 -95 115 -73 6 11 -162
189 -179 189 -4 0 -10 -7 -14 -16z"/>
<path d="M32 782 c-18 -6 -15 -30 6 -40 19 -11 62 2 62 17 0 19 -40 33 -68 23z"/>
</g>
</svg>
